<svg id="Capa_1" enable-background="new 0 0 512 512" height="512" viewBox="0 0 512 512" width="512" xmlns="http://www.w3.org/2000/svg"><g><g><g><g><g><g><g><g><circle cx="256" cy="256" fill="#7584f2" r="256"/></g></g></g></g></g></g></g><path d="m512 256c0-18.242-1.908-36.038-5.535-53.2l-94.986-94.986-4.551 7.389-28.756-28.756-274.317 339.106 74.442 74.442c24.507 7.797 50.614 12.005 77.703 12.005 141.385 0 256-114.615 256-256z" fill="#4855b7"/><g><g><path d="m363.261 107.814h48.217v78.279h-48.217z" fill="#fff"/></g><g><path d="m363.261 180.512h48.217v78.279h-48.217z" fill="#e9edf5"/></g><g><path d="m363.261 253.209h48.217v78.279h-48.217z" fill="#fff"/></g><g><path d="m363.261 325.907h48.217v78.279h-48.217z" fill="#e9edf5"/></g></g><g><path d="m133.828 86.447h244.343v339.106h-244.343z" fill="#ffce00"/></g><g><path d="m262.917 86.447h115.254v339.106h-115.254z" fill="#fdba12"/></g><g><path d="m103.856 86.447h53.506v339.106h-53.506z" fill="#fe6a16"/></g><g><path d="m278.06 242.122c12.496-5.619 21.197-18.176 21.197-32.765 0-19.831-16.076-35.907-35.907-35.907s-35.907 16.076-35.907 35.907c0 14.589 8.701 27.146 21.197 32.765-23.821 5.864-42.166 25.645-45.917 50.227h121.255c-3.752-24.582-22.097-44.363-45.918-50.227z" fill="#fe6a16"/></g><g><path d="m278.06 242.122c12.496-5.619 21.197-18.176 21.197-32.765 0-19.831-16.076-35.907-35.907-35.907-.145 0-.288.009-.433.011v118.888h61.06c-3.751-24.582-22.096-44.363-45.917-50.227z" fill="#f24500"/></g></g></svg>