<svg id="Capa_1" enable-background="new 0 0 512 512" height="512" viewBox="0 0 512 512" width="512" xmlns="http://www.w3.org/2000/svg"><g><g><g><g><g><g><g><g><g><circle cx="256" cy="256" fill="#a3d4ff" r="256"/></g></g></g></g></g></g></g></g><path d="m512 256c0-4.097-.096-8.171-.287-12.221l-107.674-107.674-284.078 307.531 55.407 55.407c25.351 8.406 52.46 12.957 80.632 12.957 141.385 0 256-114.615 256-256z" fill="#65b1fc"/><g><path d="m310.246 96.041h-190.285v347.595h258.026v-279.853z" fill="#fe6a16"/></g><g><path d="m377.987 163.783-67.741-67.741h-67.379v347.594h135.12z" fill="#f24500"/></g><g><path d="m336.298 68.364h-190.285v347.595h258.026v-279.854z" fill="#fff"/></g><g><path d="m404.039 136.105-67.741-67.741h-61.503v347.594h129.244z" fill="#e9edf5"/></g><g><path d="m336.298 136.105h67.741l-67.741-67.741z" fill="#cdd2e1"/></g><g><path d="m176.891 173.256h196.269v30.299h-196.269z" fill="#e9edf5"/></g><g><path d="m176.891 335.5h196.269v30.299h-196.269z" fill="#e9edf5"/></g><g><path d="m176.891 281.419h196.269v30.299h-196.269z" fill="#e9edf5"/></g><g><path d="m176.891 227.338h196.269v30.299h-196.269z" fill="#e9edf5"/></g><g><path d="m274.795 173.256h98.365v30.299h-98.365z" fill="#cdd2e1"/></g><g><path d="m274.795 335.5h98.365v30.299h-98.365z" fill="#cdd2e1"/></g><g><path d="m274.795 281.419h98.365v30.299h-98.365z" fill="#cdd2e1"/></g><g><path d="m274.795 227.338h98.365v30.299h-98.365z" fill="#cdd2e1"/></g></g></svg>