<svg id="Capa_1" enable-background="new 0 0 512 512" height="512" viewBox="0 0 512 512" width="512" xmlns="http://www.w3.org/2000/svg"><g><g><g><g><g><g><g><g><g><circle cx="256" cy="256" fill="#a3d4ff" r="256"/></g></g></g></g></g></g></g></g><path d="m510.971 279.111-192.229-192.229-179.489 126.948 23.259 138.503 92.189 92.189-57.931 15.438 51.938 51.938c2.422.068 4.853.102 7.292.102 133.595 0 243.289-102.333 254.971-232.889z" fill="#65b1fc"/><g><path d="m232.129 378.479h47.742v72.955h-47.742z" fill="#414952"/></g><g><path d="m256.12 378.479h23.75v72.955h-23.75z" fill="#23272b"/></g><g><path d="m256 389.356c-75.44 0-136.815-61.375-136.815-136.815v-67.176h273.63v67.176c0 75.44-61.375 136.815-136.815 136.815zm-106.815-173.991v37.176c0 58.898 47.917 106.815 106.815 106.815s106.815-47.917 106.815-106.815v-37.176z" fill="#555a66"/></g><g><path d="m256.12 185.365v30h106.694v37.176c0 58.858-47.852 106.748-106.694 106.813v30c75.385-.065 136.694-61.414 136.694-136.813v-67.176z" fill="#333940"/></g><g><path d="m342.66 146.66c0-47.861-38.799-86.66-86.66-86.66-47.861 0-86.66 38.799-86.66 86.66v53.705l86.66 14.563 86.66-14.563z" fill="#707789"/></g><g><path d="m342.66 146.66c0-47.821-38.734-86.593-86.54-86.659v154.906l86.54-14.543z" fill="#555a66"/></g><g><path d="m169.34 200.365v57.991c0 47.861 38.799 86.66 86.66 86.66 47.861 0 86.66-38.799 86.66-86.66v-57.991z" fill="#636978"/></g><g><path d="m256.12 200.365v144.65c47.806-.065 86.54-38.838 86.54-86.659v-57.991z" fill="#414952"/></g><g><circle cx="256" cy="172.021" fill="#555a66" r="15"/></g><g><g><circle cx="303.742" cy="172.021" fill="#333940" r="15"/></g><g><circle cx="208.258" cy="172.021" fill="#555a66" r="15"/></g></g><g><circle cx="256" cy="125.107" fill="#555a66" r="15"/></g><g><g><circle cx="303.742" cy="125.107" fill="#333940" r="15"/></g><g><circle cx="208.258" cy="125.107" fill="#555a66" r="15"/></g></g><g><circle cx="256" cy="275.744" fill="#414952" r="15"/></g><g><g><circle cx="303.742" cy="275.744" fill="#23272b" r="15"/></g><g><circle cx="208.258" cy="275.744" fill="#414952" r="15"/></g></g><g><circle cx="256" cy="228.83" fill="#414952" r="15"/></g><g><path d="m271 172.021c0-8.244-6.651-14.928-14.88-14.994v29.988c8.229-.065 14.88-6.75 14.88-14.994z" fill="#333940"/></g><g><path d="m271 125.107c0-8.244-6.651-14.928-14.88-14.994v29.988c8.229-.065 14.88-6.75 14.88-14.994z" fill="#333940"/></g><g><path d="m271 275.744c0-8.244-6.651-14.928-14.88-14.994v29.988c8.229-.066 14.88-6.75 14.88-14.994z" fill="#23272b"/></g><g><path d="m271 228.83c0-8.244-6.651-14.928-14.88-14.994v29.988c8.229-.065 14.88-6.75 14.88-14.994z" fill="#23272b"/></g><g><g><circle cx="303.742" cy="228.83" fill="#23272b" r="15"/></g><g><circle cx="208.258" cy="228.83" fill="#414952" r="15"/></g></g><g><path d="m196.77 422.82h118.461v37.14h-118.461z" fill="#555a66"/></g><g><path d="m256.12 422.82h59.11v37.14h-59.11z" fill="#333940"/></g></g></svg>