<svg id="Capa_1" enable-background="new 0 0 512 512" height="512" viewBox="0 0 512 512" width="512" xmlns="http://www.w3.org/2000/svg"><g><g><g><g><g><g><g><g><g><circle cx="256" cy="256" fill="#ffce00" r="256"/></g></g></g></g></g></g></g></g><path d="m512 256c0-13.503-1.045-26.762-3.06-39.7l-108.24-108.241-287.827 298.67 101.981 101.981c13.396 2.165 27.139 3.29 41.146 3.29 141.385 0 256-114.615 256-256z" fill="#ffa300"/><g><path d="m139.118 432.975-59.484-59.485 151.833-165.341 72.992 72.992z" fill="#555a66"/></g><g><path d="m108.053 401.91 31.065 31.065 165.341-151.834-37.818-37.818z" fill="#333940"/></g><g><path d="m289.594 251.584-28.57-28.57c-23.409-23.409-23.409-61.362 0-84.771l42.544-42.544c23.409-23.409 61.362-23.409 84.771 0l28.57 28.57c23.409 23.409 23.409 61.362 0 84.771l-42.544 42.544c-23.408 23.409-61.362 23.409-84.771 0z" fill="#fe6a16"/></g><g><path d="m416.909 124.269-15.607-15.607-127.315 127.315 15.607 15.607c23.409 23.409 61.363 23.409 84.771 0l42.544-42.544c23.409-23.409 23.409-61.362 0-84.771z" fill="#f24500"/></g><g><path d="m164.31 200.175h181.14v115.108h-181.14z" fill="#707789" transform="matrix(.707 .707 -.707 .707 256.894 -104.74)"/></g><g><path d="m228.686 242.869h115.108v92.44h-115.108z" fill="#555a66" transform="matrix(.707 -.707 .707 .707 -120.579 287.074)"/></g></g></svg>