<svg id="Capa_1" enable-background="new 0 0 512 512" height="512" viewBox="0 0 512 512" width="512" xmlns="http://www.w3.org/2000/svg"><g><g><g><g><g><g><g><g><circle cx="256" cy="256" fill="#7584f2" r="256"/></g></g></g></g></g></g></g><path d="m512 256c0-4.487-.116-8.946-.344-13.376l-119.423-119.423-264.26 294.193 92.106 92.106c11.737 1.648 23.729 2.5 35.921 2.5 141.385 0 256-114.615 256-256z" fill="#4855b7"/><g><path d="m267.309 67.367c-92.613 0-167.691 75.078-167.691 167.691 0 34.547 10.447 66.653 28.354 93.333v89.003l61.473-33.781c23.268 12.221 49.758 19.135 77.863 19.135 92.613 0 167.691-75.078 167.691-167.691s-75.077-167.69-167.69-167.69z" fill="#ffce00"/></g><g><path d="m267.309 67.367c-3.761 0-7.49.137-11.189.38v334.624c3.699.244 7.428.377 11.189.377 92.613 0 167.691-75.078 167.691-167.691s-75.078-167.69-167.691-167.69z" fill="#fdba12"/></g><g><path d="m249.631 169.675-38.015-38.015c-5.868-5.868-15.382-5.868-21.25 0l-23.363 23.363c-14.494 21.768 9.487 74.277 56.133 120.923s99.155 70.627 120.923 56.133l23.363-23.363c5.868-5.868 5.868-15.382 0-21.25l-38.015-38.015c-5.868-5.868-15.382-5.868-21.25 0l-20.531 20.531-58.525-58.525 20.531-20.531c5.868-5.869 5.868-15.383-.001-21.251z" fill="#707789"/></g><g><path d="m367.422 287.465-38.015-38.015c-5.868-5.868-15.382-5.868-21.25 0l-20.531 20.531-31.505-31.505v66.083c36.389 27.077 71.225 38.649 87.938 27.52l23.363-23.363c5.868-5.869 5.868-15.383 0-21.251z" fill="#555a66"/></g></g></svg>