<svg id="Capa_1" enable-background="new 0 0 512 512" height="512" viewBox="0 0 512 512" width="512" xmlns="http://www.w3.org/2000/svg"><g><g><g><g><g><g><g><g><g><circle cx="256" cy="256" fill="#ffce00" r="256"/></g></g></g></g></g></g></g></g><path d="m512 256c0-28.231-4.57-55.395-13.01-80.792l-54.576-54.576-98.934 117.806-117.806-117.806-159.13 271.962 106.261 106.261c25.513 8.527 52.814 13.145 81.195 13.145 141.385 0 256-114.615 256-256z" fill="#ffa300"/><g><g><path d="m212.249 399.297h-129.238c-10.481 0-18.978-8.497-18.978-18.978v-248.637c0-10.481 8.497-18.978 18.978-18.978h129.238c10.481 0 18.978 8.497 18.978 18.978v248.636c0 10.482-8.497 18.979-18.978 18.979z" fill="#636978"/></g><g><path d="m64.033 245.915v134.403c0 10.481 8.497 18.978 18.978 18.978h129.238c10.481 0 18.978-8.497 18.978-18.978v-134.403z" fill="#414952"/></g><g><path d="m81.421 132.149h132.417v238.997h-132.417z" fill="#fff"/></g><g><path d="m81.421 245.915h132.417v125.23h-132.417z" fill="#e9edf5"/></g><g><path d="m428.989 399.297h-129.238c-10.481 0-18.978-8.497-18.978-18.978v-248.637c0-10.481 8.497-18.978 18.978-18.978h129.238c10.481 0 18.978 8.497 18.978 18.978v248.636c0 10.482-8.497 18.979-18.978 18.979z" fill="#636978"/></g><g><path d="m280.773 245.915v134.403c0 10.481 8.497 18.978 18.978 18.978h129.238c10.481 0 18.978-8.497 18.978-18.978v-134.403z" fill="#414952"/></g><g><path d="m298.161 132.149h132.417v238.997h-132.417z" fill="#fff"/></g><g><path d="m298.161 245.915h132.417v125.23h-132.417z" fill="#e9edf5"/></g></g><g><path d="m332.595 138.98-21.213 21.214 28.3 28.299h-139.301v30h139.301l-28.3 28.3 21.213 21.214 64.512-64.514z" fill="#fe6a16"/><path d="m200.381 203.507v14.986h139.301l-28.3 28.3 21.213 21.214 64.512-64.514z" fill="#f24500"/><path d="m311.619 284.801h-139.301l28.3-28.3-21.213-21.213-64.512 64.513 64.512 64.513 21.213-21.213-28.3-28.3h139.301z" fill="#f24500"/><path d="m311.619 299.592-196.726.209 64.512 64.513 21.213-21.213-28.3-28.3h139.301z" fill="#d13400"/></g></g></svg>