<svg id="Capa_1" enable-background="new 0 0 512 512" height="512" viewBox="0 0 512 512" width="512" xmlns="http://www.w3.org/2000/svg"><g><g><g><g><g><g><g><g><g><circle cx="256" cy="256" fill="#fe6a16" r="256"/></g></g></g></g></g></g></g></g><path d="m512 256c0-20.436-2.395-40.312-6.918-59.364l-85.744-85.744-203.706 158.613-86.975-86.975-51.657 117.285 210.291 210.291c126.625-15.431 224.709-123.314 224.709-254.106z" fill="#ea4006"/><g><path d="m460.28 280.742-74.281 8.826v-96.79l74.281 8.827z" fill="#cdd2e1"/></g><g><path d="m385.999 241.208v48.36l74.281-8.827v-39.533z" fill="#bec3d2"/></g><g><path d="m300.261 413.947c-3.607 0-7.246-.494-10.835-1.5l-100.308-28.086c-17.111-4.791-29.062-20.547-29.062-38.317v-103.177l179.888 44.216v87.048c0 12.559-5.739 24.114-15.745 31.703-7.036 5.336-15.393 8.112-23.938 8.113zm-110.205-132.814v64.911c0 4.372 2.94 8.25 7.15 9.428l100.308 28.086c4.075 1.139 7.109-.53 8.556-1.627 1.447-1.098 3.874-3.57 3.874-7.801v-63.529z" fill="#ffce00"/></g><g><path d="m419.337 371.455-326.674-83.985v-92.593l326.674-83.986z" fill="#fff"/></g><g><path d="m92.663 241.208v46.262l326.674 83.985v-130.247z" fill="#e9edf5"/></g><g><path d="m77 182.531h51.658v117.285h-51.658z" fill="#ffce00"/></g><g><path d="m77 241.208h51.658v58.608h-51.658z" fill="#fdba12"/></g></g></svg>