<svg id="Capa_1" enable-background="new 0 0 512 512" height="512" viewBox="0 0 512 512" width="512" xmlns="http://www.w3.org/2000/svg"><g><g><g><g><g><g><g><g><g><ellipse cx="256" cy="256" fill="#a3d4ff" rx="256" ry="256" transform="matrix(.707 -.707 .707 .707 -106.039 256)"/></g></g></g></g></g></g></g></g><path d="m512 256c0-5.906-.2-11.764-.594-17.57l-64.63-64.63-36.312 28.671-99.697-99.697-158.261 155.889 3.32 232.996c30.768 13.095 64.625 20.341 100.174 20.341 141.385 0 256-114.615 256-256z" fill="#65b1fc"/><g><path d="m117.574 102.774h193.194v176.193h-193.194z" fill="#f24500"/></g><g><path d="m117.574 199.627h193.194v79.34h-193.194z" fill="#d13400"/></g><g><path d="m310.768 102.774-57.186 71.026 57.186 39.507z" fill="#d13400"/></g><g><path d="m253.582 173.8 57.186 39.507v-110.533" fill="#d13400"/></g><g><path d="m446.776 349.993h-193.194v-176.193h193.194l-64.913 88.096z" fill="#fe6a16"/></g><g><path d="m381.863 261.896h-128.281v88.097h193.194z" fill="#f24500"/></g><g><path d="m99.027 458.241c17.298 13.446 36.368 24.721 56.799 33.417v-388.884h-56.799z" fill="#ffce00"/></g></g></svg>