<svg id="Capa_1" enable-background="new 0 0 512 512" height="512" viewBox="0 0 512 512" width="512" xmlns="http://www.w3.org/2000/svg"><g><g><g><g><g><g><g><g><g><g><circle cx="256" cy="256" fill="#ffce00" r="256"/></g></g></g></g></g></g></g></g></g><path d="m512 256c0-10.867-.677-21.576-1.992-32.088l-134.866-134.865-219.261 327.695 95.212 95.212c1.631.031 3.267.046 4.907.046 141.385 0 256-114.615 256-256z" fill="#ffa300"/><g><path d="m256 458.911c-77.305 0-139.972-62.668-139.972-139.972v-177.949c0-41.524 33.662-75.185 75.185-75.185h129.574c41.524 0 75.185 33.662 75.185 75.185v177.948c0 77.305-62.667 139.973-139.972 139.973z" fill="#707789"/></g><g><path d="m320.787 65.805h-65.031v393.103c.081 0 .162.003.244.003 77.304 0 139.972-62.667 139.972-139.972v-177.949c0-41.523-33.661-75.185-75.185-75.185z" fill="#555a66"/></g><g><path d="m395.972 140.99c0-41.524-33.662-75.185-75.185-75.185h-129.574c-41.524 0-75.185 33.662-75.185 75.185v71.548h279.944z" fill="#7e8596"/></g><g><path d="m395.972 140.99c0-41.524-33.662-75.185-75.185-75.185h-65.031v146.733h140.216z" fill="#636978"/></g><g><path d="m256 190.87c-14.394 0-26.063-11.669-26.063-26.063v-44.793c0-14.394 11.669-26.063 26.063-26.063 14.394 0 26.063 11.669 26.063 26.063v44.793c0 14.394-11.669 26.063-26.063 26.063z" fill="#414952"/></g><g><path d="m256 93.95c-.082 0-.162.005-.244.006v96.908c.082.001.162.006.244.006 14.394 0 26.063-11.669 26.063-26.063v-44.793c0-14.395-11.669-26.064-26.063-26.064z" fill="#23272b"/></g></g></svg>