<svg id="Capa_1" enable-background="new 0 0 512 512" height="512" viewBox="0 0 512 512" width="512" xmlns="http://www.w3.org/2000/svg"><g><g><g><g><g><g><g><g><g><circle cx="256" cy="256" fill="#7584f2" r="256"/></g></g></g></g></g></g></g></g><path d="m512 256c0-7.351-.31-14.63-.917-21.824l-110.504-110.503-286.032 279.78 106.439 106.172c11.448 1.566 23.136 2.375 35.014 2.375 141.385 0 256-114.615 256-256z" fill="#4855b7"/><g><path d="m298.002 105.743h127.421v101.09h-127.421z" fill="#fff" transform="matrix(.707 .707 -.707 .707 216.455 -209.994)"/></g><g><path d="m333.189 145.743h101.09v65.133h-101.09z" fill="#e9edf5" transform="matrix(.707 -.707 .707 .707 -13.691 323.568)"/></g><g><path d="m114.547 403.453c-29.192-29.192-29.192-76.521 0-105.712l171.657-171.657 105.712 105.712-171.657 171.657c-29.191 29.192-76.52 29.192-105.712 0z" fill="#fe8205"/></g><g><path d="m113.566 402.422c.33.342.643.694.98 1.031 29.192 29.192 76.521 29.192 105.712 0l171.656-171.657-53.862-53.862z" fill="#fa5d0f"/></g><g><g><path d="m332.586 103.319h30.592v53.43h-30.592z" fill="#cdd2e1" transform="matrix(.707 .707 -.707 .707 193.84 -207.904)"/></g><g><path d="m372.67 143.403h30.592v53.43h-30.592z" fill="#afb4c8" transform="matrix(.707 .707 -.707 .707 233.924 -224.508)"/></g></g></g></svg>