<svg id="Capa_1" enable-background="new 0 0 512 512" height="512" viewBox="0 0 512 512" width="512" xmlns="http://www.w3.org/2000/svg"><g><g><g><g><g><g><g><g><g><circle cx="256" cy="256" fill="#ffce00" r="256"/></g></g></g></g></g></g></g></g><path d="m512 256c0-12.222-.857-24.244-2.513-36.009l-80.085-80.085-346.804 230.189 139.707 139.708c11.027 1.449 22.273 2.197 33.695 2.197 141.385 0 256-114.615 256-256z" fill="#ffa300"/><g><path d="m82.598 139.906h346.803v230.189h-346.803z" fill="#707789"/></g><g><path d="m253.077 139.906h176.325v230.189h-176.325z" fill="#555a66"/></g><g><path d="m118.199 167.036h30.299v175.927h-30.299z" fill="#dce1eb"/></g><g><path d="m101.584 181.745h63.529v29.321h-63.529z" fill="#fe6a16"/></g><g><path d="m198.344 167.036h30.299v175.927h-30.299z" fill="#dce1eb"/></g><g><path d="m181.728 283.392h63.529v29.321h-63.529z" fill="#fe6a16"/></g><g><path d="m278.615 167.036h30.299v175.927h-30.299z" fill="#bec3d2"/></g><g><path d="m262 211.066h63.529v29.321h-63.529z" fill="#f24500"/></g><g><path d="m358.76 167.036h30.299v175.927h-30.299z" fill="#bec3d2"/></g><g><path d="m342.145 249h63.529v29.321h-63.529z" fill="#f24500"/></g></g></svg>