<svg id="Capa_1" enable-background="new 0 0 512 512" height="512" viewBox="0 0 512 512" width="512" xmlns="http://www.w3.org/2000/svg"><g><g><g><g><g><g><g><g><g><circle cx="256" cy="256" fill="#a3d4ff" r="256"/></g></g></g></g></g></g></g></g><path d="m340.822 100.32-252.09 229.357 181.911 181.911c129.586-7.307 233.406-110.996 240.921-240.526z" fill="#65b1fc"/><g><path d="m225.594 510.213c9.971 1.18 20.118 1.787 30.406 1.787s20.435-.607 30.406-1.787v-214.739h-60.811v214.739z" fill="#ffce00"/></g><g><path d="m286.406 295.474h-30.286v216.525c10.247-.005 20.353-.611 30.285-1.786v-214.739z" fill="#fdba12"/></g><g><path d="m423.268 329.677h-206.175l-56.543-194.172h179.085c46.19 0 83.634 37.444 83.634 83.634v110.538z" fill="#fe6a16"/></g><g><path d="m423.268 219.139c0-46.19-37.444-83.634-83.634-83.634h-83.514v194.172h167.148z" fill="#f24500"/></g><g><path d="m232.367 329.677h-143.635v-122.354c0-39.664 32.154-71.818 71.818-71.818 39.664 0 71.818 32.154 71.818 71.818v122.354z" fill="#fff"/></g><g><path d="m297.817 100.32h43.004v139.526h-43.004z" fill="#707789"/></g><g><circle cx="160.55" cy="183.397" fill="#707789" r="20.525"/></g></g></svg>