<svg id="Capa_1" enable-background="new 0 0 512 512" height="512" viewBox="0 0 512 512" width="512" xmlns="http://www.w3.org/2000/svg"><g><g><g><g><g><g><g><g><g><circle cx="256" cy="256" fill="#7584f2" r="256"/></g></g></g></g></g></g></g></g><path d="m512 256c0-11.352-.739-22.531-2.171-33.493l-111.804-111.803-329.133 215.532 185.76 185.76c.449.003.898.004 1.348.004 141.385 0 256-114.615 256-256z" fill="#4855b7"/><g><path d="m68.892 160.734h222.19v165.502h-222.19z" fill="#cdd2e1"/></g><g><path d="m68.892 245.41h222.189v80.826h-222.189z" fill="#afb4c8"/></g><g><path d="m330.619 443.998c-43.677 0-79.084-35.407-79.084-79.084v-195.942h158.168v195.941c0 43.677-35.407 79.085-79.084 79.085z" fill="#e9edf5"/></g><g><path d="m330.217 168.972v275.015c.135.001.267.01.402.01 43.677 0 79.084-35.407 79.084-79.084v-195.941z" fill="#cdd2e1"/></g><g><circle cx="330.619" cy="169.354" fill="#fff" r="89.351"/></g><g><path d="m330.619 80.002c-.134 0-.268.004-.402.005v178.693c.134.001.268.005.402.005 49.347 0 89.351-40.004 89.351-89.351 0-49.348-40.004-89.352-89.351-89.352z" fill="#e9edf5"/></g><g><circle cx="330.619" cy="169.354" fill="#707789" r="55.385"/></g><g><path d="m330.619 113.969c-.135 0-.267.009-.402.01v110.749c.135.001.267.01.402.01 30.588 0 55.385-24.797 55.385-55.385s-24.797-55.384-55.385-55.384z" fill="#555a66"/></g><g><circle cx="311.671" cy="145.906" fill="#fff" r="14.828"/></g><g><path d="m89.091 195.451h71.022v24.76h-71.022z" fill="#9196aa"/></g><g><path d="m89.091 231.105h24.76v24.76h-24.76z" fill="#fe6a16"/></g><g><path d="m89.091 245.41h24.76v10.456h-24.76z" fill="#f24500"/></g><g><path d="m313.71 279.505h33.817v72.326h-33.817z" fill="#9196aa"/></g><g><path d="m330.217 279.505h17.311v72.325h-17.311z" fill="#707789"/></g></g></svg>