<svg id="Capa_1" enable-background="new 0 0 512 512" height="512" viewBox="0 0 512 512" width="512" xmlns="http://www.w3.org/2000/svg"><g><g><g><g><g><g><g><g><g><circle cx="256" cy="256" fill="#a3d4ff" r="256"/></g></g></g></g></g></g></g></g><path d="m512 256c0-24.62-3.475-48.427-9.962-70.96l-74.506-73.518-342.989 274.459 120.999 121.047c16.313 3.261 33.186 4.972 50.458 4.972 141.385 0 256-114.615 256-256z" fill="#65b1fc"/><g><path d="m84.543 111.522h342.989v263.999h-342.989z" fill="#fe6a16"/></g><g><path d="m256.12 111.522h171.411v263.999h-171.411z" fill="#f24500"/></g><g><path d="m84.543 320.943h342.989v65.038h-342.989z" fill="#707789"/></g><g><path d="m256.12 320.943h171.411v65.038h-171.411z" fill="#555a66"/></g><g><path d="m109.883 337.404h292.235v32.117h-292.235z" fill="#fff"/></g><g><path d="m256.12 337.404h145.997v32.117h-145.997z" fill="#e9edf5"/></g><g><path d="m343.175 327.073h26.389v52.778h-26.389z" fill="#23272b"/></g><g><g><circle cx="256" cy="219.964" fill="#fff" r="75.258"/></g><g><path d="m331.258 219.964c0-41.523-33.629-75.189-75.137-75.255v150.509c41.507-.065 75.137-33.731 75.137-75.254z" fill="#e9edf5"/></g><g><path d="m235.796 170.012 72.002 49.952-72.002 49.952z" fill="#707789"/></g><path d="m256.12 255.816 51.678-35.852-51.678-35.852z" fill="#636978"/></g></g></svg>