<svg id="Capa_1" enable-background="new 0 0 512 512" height="512" viewBox="0 0 512 512" width="512" xmlns="http://www.w3.org/2000/svg"><g><g><g><g><g><g><g><g><g><circle cx="256" cy="256" fill="#a3d4ff" r="256"/></g></g></g></g></g></g></g></g><path d="m510.006 288.101-144.499-144.499-156.375-40.963-132.132 140.164 35.53 136.749 132.681 132.226c3.578.147 7.175.222 10.789.222 130.513 0 238.214-97.666 254.006-223.899z" fill="#65b1fc"/><g><path d="m174.386 355.92h248.831v43.54h-248.831z" fill="#414952"/></g><g><g><g><g><g><g><g><g><circle cx="233.817" cy="256" fill="#414952" r="120.618"/></g></g></g></g></g></g></g></g><path d="m301.398 355.92c32.005-21.688 53.037-58.347 53.037-99.92 0-66.543-53.885-120.498-120.401-120.615v264.075h189.182v-43.54z" fill="#23272b"/><g><path d="m233.817 82.866c-95.619 0-173.134 77.515-173.134 173.134s77.515 173.134 173.134 173.134 173.134-77.515 173.134-173.134-77.515-173.134-173.134-173.134zm-112.398 204.197c-17.155 0-31.062-13.907-31.062-31.062s13.907-31.062 31.062-31.062 31.062 13.906 31.062 31.062c0 17.155-13.907 31.062-31.062 31.062zm112.398 112.396c-17.155 0-31.062-13.907-31.062-31.062s13.907-31.062 31.062-31.062 31.062 13.907 31.062 31.062-13.907 31.062-31.062 31.062zm0-224.795c-17.155 0-31.062-13.907-31.062-31.062s13.907-31.062 31.062-31.062 31.062 13.907 31.062 31.062-13.907 31.062-31.062 31.062zm112.398 112.399c-17.155 0-31.062-13.907-31.062-31.062s13.907-31.062 31.062-31.062 31.062 13.907 31.062 31.062c0 17.154-13.907 31.061-31.062 31.062z" fill="#636978"/></g><g><path d="m406.951 256c0-95.547-77.397-173.014-172.916-173.132v29.677c17.054.118 30.844 13.974 30.844 31.056s-13.79 30.938-30.844 31.056v162.684c17.054.118 30.844 13.975 30.844 31.056s-13.79 30.938-30.844 31.056v29.677c95.519-.116 172.916-77.584 172.916-173.13zm-91.798 0c0-17.155 13.907-31.062 31.062-31.062s31.062 13.907 31.062 31.062-13.907 31.062-31.062 31.062c-17.155.001-31.062-13.907-31.062-31.062z" fill="#414952"/></g><g><g><g><g><g><g><g><g><circle cx="233.817" cy="256" fill="#414952" r="31.062"/></g></g></g></g></g></g></g></g><g><g><g><g><g><g><g><g><path d="m264.879 256c0-17.082-13.79-30.938-30.844-31.056v62.112c17.054-.118 30.844-13.974 30.844-31.056z" fill="#23272b"/></g></g></g></g></g></g></g></g></g></svg>