<svg id="Capa_1" enable-background="new 0 0 512 512" height="512" viewBox="0 0 512 512" width="512" xmlns="http://www.w3.org/2000/svg"><g><g><g><g><g><g><g><g><g><g><g><g><g><g><g><g><g><g><g><g><g><g><g><circle cx="256" cy="256" fill="#a3d4ff" r="256"/></g></g></g></g></g></g></g></g></g></g></g></g></g></g></g></g></g></g></g></g></g></g><path d="m512 256c0-1.81-.019-3.616-.056-5.417l-86.21-86.209-19.07 23.322-105.262-105.262-188.983 336.093 87.256 87.256c18.124 4.07 36.974 6.217 56.325 6.217 141.385 0 256-114.615 256-256z" fill="#65b1fc"/><g><path d="m285.033 424.372h-157.265c-12.754 0-23.094-10.339-23.094-23.094v-302.556c0-12.754 10.339-23.094 23.094-23.094h157.264c12.754 0 23.094 10.339 23.094 23.094v302.556c.001 12.754-10.339 23.094-23.093 23.094z" fill="#636978"/></g><g><path d="m285.033 75.628h-78.31v348.744h78.31c12.754 0 23.094-10.34 23.094-23.094v-302.556c0-12.754-10.34-23.094-23.094-23.094z" fill="#414952"/></g><g><path d="m125.834 99.291h161.133v290.825h-161.133z" fill="#fff"/></g><g><path d="m206.723 99.291h80.244v290.826h-80.244z" fill="#e9edf5"/></g><g><g><path d="m170.202 164.374h255.532v171.252h-255.532z" fill="#ffce00"/></g><g><path d="m297.883 164.374h127.851v171.252h-127.851z" fill="#fdba12"/></g><g><path d="m170.202 335.626 127.681-105.844 127.851 105.844z" fill="#ffde55"/></g><g><path d="m297.883 229.782v.201 105.611l127.851.032z" fill="#ffce00"/></g><g><path d="m170.202 164.374 127.681 114.475 127.851-114.475z" fill="#fa0"/></g><g><path d="m425.734 164.374h-127.851v114.475z" fill="#ff9500"/></g></g></g></svg>