<svg id="Capa_1" enable-background="new 0 0 512 512" height="512" viewBox="0 0 512 512" width="512" xmlns="http://www.w3.org/2000/svg"><g><g><g><g><g><g><g><g><g><g><g><g><g><g><g><g><g><g><g><g><g><g><g><g><circle cx="256" cy="256" fill="#fe6a16" r="256"/></g></g></g></g></g></g></g></g></g></g></g></g></g></g></g></g></g></g></g></g></g></g></g><path d="m512 256c0-16.861-1.63-33.341-4.741-49.291l-102.15-102.15-258.595 22.779-63.794 252.282 128.471 128.471c14.549 2.569 29.523 3.909 44.809 3.909 141.385 0 256-114.615 256-256z" fill="#ea4006"/><g><path d="m127.772 104.559h148.985v29.321h-148.985z" fill="#fff"/></g><g><path d="m82.72 150.272h346.56v229.348h-346.56z" fill="#555a66"/></g><g><path d="m256.124 150.272h173.157v229.348h-173.157z" fill="#333940"/></g><g><circle cx="174.389" cy="261.884" fill="#e9edf5" r="78.353"/></g><g><g><g><circle cx="174.389" cy="206.665" fill="#bec3d2" r="10.849"/></g><g><circle cx="174.389" cy="243.478" fill="#bec3d2" r="10.849"/></g><g><circle cx="174.389" cy="280.291" fill="#bec3d2" r="10.849"/></g><g><circle cx="174.389" cy="317.104" fill="#bec3d2" r="10.849"/></g></g><g><g><circle cx="202.265" cy="225.072" fill="#bec3d2" r="10.849"/></g><g><circle cx="202.265" cy="261.884" fill="#bec3d2" r="10.849"/></g><g><circle cx="202.265" cy="298.697" fill="#bec3d2" r="10.849"/></g></g><g><g><circle cx="146.514" cy="225.072" fill="#bec3d2" r="10.849"/></g><g><circle cx="146.514" cy="261.884" fill="#bec3d2" r="10.849"/></g><g><circle cx="146.514" cy="298.697" fill="#bec3d2" r="10.849"/></g></g><g><g><circle cx="230.14" cy="246.769" fill="#bec3d2" r="10.849"/></g><g><circle cx="230.14" cy="283.582" fill="#bec3d2" r="10.849"/></g></g><g><g><circle cx="118.638" cy="246.769" fill="#bec3d2" r="10.849"/></g><g><circle cx="118.638" cy="283.582" fill="#bec3d2" r="10.849"/></g></g></g><g><path d="m267.625 253.218h140.742v27.268h-140.742z" fill="#9196aa"/></g><g><path d="m267.625 302.838h140.742v27.268h-140.742z" fill="#9196aa"/></g><g><path d="m99.516 104.559h64.024v69.567h-64.024z" fill="#555a66"/></g><g><path d="m267.625 174.126h140.742v38.79h-140.742z" fill="#a3d4ff"/></g><g><path d="m256.124 104.559h148.985v29.321h-148.985z" fill="#e9edf5"/></g></g></svg>