<svg id="Capa_1" enable-background="new 0 0 512 512" height="512" viewBox="0 0 512 512" width="512" xmlns="http://www.w3.org/2000/svg"><g><g><g><g><g><g><g><g><circle cx="256" cy="256" fill="#a3d4ff" r="256"/></g></g></g></g></g></g></g><path d="m512 256c0-14.94-1.28-29.582-3.736-43.82l-87.184-87.184-30.393 43.73-88.099-88.099-235.442 286.308 140.506 140.506c15.656 2.993 31.819 4.559 48.348 4.559 141.385 0 256-114.615 256-256z" fill="#65b1fc"/><g><path d="m430.297 346.426h-348.594v-198.744c0-17.98 14.576-32.555 32.555-32.555h283.483c17.98 0 32.555 14.576 32.555 32.555v198.744z" fill="#707789"/></g><g><path d="m430.297 147.682c0-17.98-14.576-32.556-32.555-32.556h-141.621v231.299h174.176z" fill="#555a66"/></g><g><path d="m408.95 330.564h-305.9v-175.168c0-9.816 7.958-17.774 17.774-17.774h270.352c9.816 0 17.774 7.958 17.774 17.774z" fill="#fff"/></g><g><path d="m408.95 155.396c0-9.816-7.958-17.774-17.774-17.774h-135.055v192.942h152.829z" fill="#e9edf5"/></g><g><path d="m272.611 243.314c14.111-6.345 23.937-20.525 23.937-37 0-22.394-18.154-40.548-40.548-40.548s-40.548 18.154-40.548 40.548c0 16.475 9.826 30.655 23.937 37-26.899 6.622-47.615 28.96-51.852 56.719h136.927c-4.237-27.759-24.953-50.097-51.853-56.719z" fill="#fe6a16"/></g><path d="m256.121 300.033h68.343c-4.237-27.759-24.953-50.097-51.853-56.719 14.111-6.345 23.937-20.524 23.937-37 0-22.354-18.089-40.482-40.427-40.547z" fill="#f24500"/><g><path d="m430.564 372.729h-349.128c-11.343 0-20.538-9.195-20.538-20.538v-26.043h390.204v26.043c0 11.343-9.195 20.538-20.538 20.538z" fill="#555a66"/></g><g><path d="m256.121 326.148v46.581h174.443c11.343 0 20.538-9.195 20.538-20.538v-26.043z" fill="#333940"/></g><g><path d="m209.413 80.626h93.175v66.077h-93.175z" fill="#555a66"/></g><g><path d="m256.121 80.626h46.467v66.077h-46.467z" fill="#333940"/></g><g><circle cx="256" cy="113.665" fill="#fff" r="20.368"/></g><g><path d="m276.368 113.665c0-11.208-9.054-20.296-20.247-20.362v40.723c11.192-.065 20.247-9.153 20.247-20.361z" fill="#e9edf5"/></g></g></svg>