<svg id="Capa_1" enable-background="new 0 0 512 512" height="512" viewBox="0 0 512 512" width="512" xmlns="http://www.w3.org/2000/svg"><g><g><g><g><g><g><g><g><circle cx="256" cy="256" fill="#fe6a16" r="256"/></g></g></g></g></g></g></g><path d="m512 256c0-6.832-.268-13.601-.793-20.298l-87.621-87.621-62.838 101.37-140.251-140.251-128.369 276.686 122.844 122.844c13.358 2.151 27.062 3.27 41.028 3.27 141.385 0 256-114.615 256-256z" fill="#ea4006"/><g><path d="m387.943 398.833h-263.886c-25.341 0-45.884-20.543-45.884-45.884v-175.982c0-25.341 20.543-45.884 45.884-45.884h263.886c25.341 0 45.884 20.543 45.884 45.884v175.983c0 25.34-20.543 45.883-45.884 45.883z" fill="#fff"/></g><g><path d="m387.943 131.083h-220.37v267.75h220.37c25.341 0 45.884-20.543 45.884-45.884v-175.982c0-25.341-20.543-45.884-45.884-45.884z" fill="#e9edf5"/></g><g><path d="m202.346 368.316h-68.243c-13.543 0-24.521-10.978-24.521-24.521v-218.107c0-13.543 10.978-24.521 24.521-24.521h68.243c13.543 0 24.521 10.978 24.521 24.521v218.107c0 13.542-10.978 24.521-24.521 24.521z" fill="#dce1eb"/></g><g><path d="m202.346 101.167h-34.773v267.148h34.773c13.543 0 24.521-10.979 24.521-24.521v-218.106c0-13.543-10.978-24.521-24.521-24.521z" fill="#cdd2e1"/></g><g><path d="m265.471 161.928h141.233v43.982h-141.233z" fill="#a3d4ff"/></g><g><circle cx="388.907" cy="239.263" fill="#bec3d2" r="16.737"/></g><g><circle cx="282.208" cy="239.263" fill="#bec3d2" r="16.737"/></g><g><circle cx="336.087" cy="239.263" fill="#bec3d2" r="16.737"/></g><g><circle cx="388.907" cy="289.353" fill="#bec3d2" r="16.737"/></g><g><circle cx="282.208" cy="289.353" fill="#bec3d2" r="16.737"/></g><g><circle cx="336.087" cy="289.353" fill="#bec3d2" r="16.737"/></g><g><circle cx="388.907" cy="339.443" fill="#bec3d2" r="16.737"/></g><g><circle cx="282.208" cy="339.443" fill="#bec3d2" r="16.737"/></g><g><circle cx="336.087" cy="339.443" fill="#bec3d2" r="16.737"/></g></g></svg>