<svg id="Capa_1" enable-background="new 0 0 512 512" height="512" viewBox="0 0 512 512" width="512" xmlns="http://www.w3.org/2000/svg"><g><g><g><g><g><g><g><g><circle cx="256" cy="256" fill="#7584f2" r="256"/></g></g></g></g></g></g></g><path d="m512 256c0-14.393-1.188-28.508-3.471-42.253l-73.916-73.916-127.288-53.457-151.862 8.321-56.857 66.384 150.113 150.113-163.987 76.128 119.428 119.428c16.742 3.443 34.08 5.252 51.84 5.252 141.385 0 256-114.615 256-256z" fill="#4855b7"/><g><path d="m402.428 398.833h-292.856c-17.989 0-32.572-14.583-32.572-32.572v-61.073c0-17.989 14.583-32.572 32.572-32.572h292.855c17.989 0 32.572 14.583 32.572 32.572v61.073c.001 17.989-14.582 32.572-32.571 32.572z" fill="#ffce00"/></g><g><path d="m402.428 272.616h-146.308v126.217h146.307c17.989 0 32.572-14.583 32.572-32.572v-61.073c.001-17.989-14.582-32.572-32.571-32.572z" fill="#ffa300"/></g><g><path d="m167.911 383.134-15.041-58.878-14.913 58.878h-19.412l-24.554-85.747h20.44l15.041 61.964 16.327-61.964h14.27l16.198 61.964 14.913-61.964h20.569l-24.426 85.747z" fill="#555a66"/><path d="m218.299 304.586c0-5.399 4.5-9.642 9.771-9.642 5.399 0 9.771 4.242 9.771 9.642s-4.371 9.771-9.771 9.771c-5.271 0-9.771-4.371-9.771-9.771zm1.671 78.548v-62.092h16.327v62.092z" fill="#555a66"/><g fill="#333940"><path d="m284.849 383.134v-85.747h60.679v16.07h-42.424v18.126h41.523v16.069h-41.523v35.481h-18.255z"/><path d="m356.193 304.586c0-5.399 4.499-9.642 9.771-9.642 5.399 0 9.77 4.242 9.77 9.642s-4.37 9.771-9.77 9.771c-5.272 0-9.771-4.371-9.771-9.771zm1.671 78.548v-62.092h16.327v62.092z"/></g></g><g><path d="m187.129 249.592-21.213-21.213c49.672-49.673 130.497-49.673 180.168 0l-21.213 21.213c-37.976-37.976-99.767-37.974-137.742 0z" fill="#fe6a16"/></g><g><path d="m346.084 228.379c-24.805-24.806-57.379-37.223-89.964-37.253v29.988c24.901.03 49.793 9.521 68.751 28.478z" fill="#f24500"/></g><g><path d="m140.418 202.889-21.215-21.212c36.539-36.544 85.12-56.673 136.794-56.678h.021c51.667 0 100.241 20.118 136.776 56.651l-21.213 21.214c-30.867-30.864-71.911-47.864-115.563-47.864-.008 0-.009 0-.017 0-43.662.004-84.71 17.011-115.583 47.889z" fill="#fe6a16"/></g><g><path d="m392.794 181.65c-36.511-36.509-85.044-56.623-136.673-56.649v30c43.614.026 84.618 17.023 115.461 47.863z" fill="#f24500"/></g><g><path d="m98.606 161.079-21.215-21.212c47.709-47.715 111.14-73.997 178.61-74.004h.027c67.461 0 130.882 26.268 178.585 73.968l-21.213 21.213c-42.034-42.031-97.928-65.182-157.373-65.182-.011 0-.013 0-.023 0-59.457.007-115.355 23.168-157.398 65.217z" fill="#fe6a16"/></g><g><path d="m434.613 139.831c-47.681-47.679-111.066-73.943-178.493-73.967v30c59.41.024 115.268 23.171 157.28 65.181z" fill="#f24500"/></g></g></svg>