<svg id="Capa_1" enable-background="new 0 0 512 512" height="512" viewBox="0 0 512 512" width="512" xmlns="http://www.w3.org/2000/svg"><g><g><g><g><g><g><g><g><g><circle cx="256" cy="256" fill="#a3d4ff" r="256"/></g></g></g></g></g></g></g></g><path d="m512 256c0-5.37-.166-10.701-.491-15.989l-119.87-119.87-156.603-41.21-101.807 41.78-56.229 141.289 38.404 124.704 124.817 124.817c5.219.318 10.48.479 15.779.479 141.385 0 256-114.615 256-256z" fill="#65b1fc"/><path d="m448.068 256c0-105.908-86.161-192.069-192.068-192.069s-192.068 86.162-192.068 192.069c0 105.84 86.053 191.959 191.868 192.068.067 0 .133.001.2.001s.133-.001.2-.001c105.815-.109 191.868-86.227 191.868-192.068zm-33.847-15h-55.2c-.583-14.543-2.01-28.769-4.235-42.448 6.949 2.526 13.544 5.336 19.725 8.419 19.715 9.834 33.442 21.729 39.71 34.029zm-85.223 0h-57.998v-57.998c17.996.777 35.364 2.951 51.583 6.414 3.464 16.22 5.637 33.588 6.415 51.584zm-57.998-88.021v-55.2c12.301 6.268 24.195 19.995 34.029 39.71 3.083 6.181 5.893 12.776 8.419 19.726-13.679-2.226-27.905-3.653-42.448-4.236zm-30-55.2v55.2c-14.543.583-28.769 2.01-42.448 4.235 2.526-6.95 5.336-13.544 8.419-19.726 9.834-19.715 21.728-33.441 34.029-39.709zm0 85.223v57.998h-57.998c.777-17.996 2.951-35.364 6.414-51.583 16.22-3.464 33.588-5.638 51.584-6.415zm-88.021 57.998h-55.2c6.268-12.3 19.995-24.195 39.71-34.029 6.181-3.083 12.776-5.893 19.725-8.419-2.225 13.68-3.652 27.905-4.235 42.448zm-55.2 30h55.2c.583 14.543 2.01 28.769 4.235 42.448-6.949-2.526-13.544-5.336-19.725-8.419-19.715-9.834-33.442-21.728-39.71-34.029zm85.223 0h57.998v57.998c-17.996-.777-35.364-2.951-51.583-6.414-3.464-16.22-5.637-33.588-6.415-51.584zm57.998 88.021v55.2c-12.301-6.268-24.195-19.995-34.029-39.71-3.083-6.181-5.893-12.776-8.418-19.725 13.679 2.225 27.904 3.653 42.447 4.235zm30 55.2v-55.2c14.543-.583 28.768-2.01 42.448-4.235-2.526 6.949-5.335 13.544-8.418 19.725-9.835 19.716-21.729 33.442-34.03 39.71zm0-85.223v-57.998h57.998c-.777 17.996-2.951 35.364-6.415 51.583-16.219 3.464-33.587 5.638-51.583 6.415zm88.021-57.998h55.2c-6.268 12.3-19.995 24.195-39.71 34.029-6.181 3.083-12.776 5.893-19.725 8.419 2.225-13.679 3.652-27.904 4.235-42.448zm44.505-82.082c-4.841-3.078-10.053-6.014-15.625-8.793-12.284-6.127-25.93-11.301-40.579-15.448-4.147-14.649-9.321-28.295-15.448-40.58-2.779-5.572-5.715-10.783-8.793-15.624 35.534 16.222 64.224 44.913 80.445 80.445zm-214.608-80.444c-3.078 4.841-6.014 10.052-8.793 15.624-6.127 12.284-11.301 25.93-15.448 40.58-14.649 4.146-28.295 9.32-40.579 15.448-5.572 2.779-10.783 5.715-15.625 8.793 16.222-35.533 44.912-64.224 80.445-80.445zm-80.444 214.608c4.841 3.078 10.052 6.014 15.624 8.793 12.284 6.127 25.93 11.301 40.579 15.448 4.146 14.649 9.32 28.295 15.447 40.579 2.779 5.571 5.715 10.783 8.792 15.624-35.53-16.221-64.221-44.912-80.442-80.444zm214.609 80.443c3.077-4.841 6.013-10.052 8.792-15.624 6.127-12.284 11.301-25.93 15.447-40.579 14.649-4.147 28.295-9.321 40.579-15.448 5.572-2.779 10.783-5.715 15.624-8.793-16.22 35.533-44.911 64.224-80.442 80.444z" fill="#606aea"/><path d="m448.068 256c0-105.868-86.096-192.002-191.948-192.068v.001 384.132.001c105.852-.065 191.948-86.199 191.948-192.066 0 .001 0 .001 0 0zm-33.847-15h-55.2c-.583-14.543-2.01-28.769-4.235-42.448 6.949 2.525 13.544 5.335 19.725 8.418 19.715 9.835 33.442 21.73 39.71 34.03zm0 30c-6.268 12.3-19.995 24.195-39.71 34.029-6.181 3.083-12.776 5.893-19.725 8.419 2.225-13.68 3.653-27.904 4.235-42.448zm-10.695-82.082c-4.841-3.078-10.053-6.014-15.625-8.793-12.284-6.127-25.93-11.301-40.579-15.448-4.147-14.649-9.32-28.295-15.448-40.58-2.779-5.571-5.714-10.782-8.792-15.623 35.533 16.222 64.223 44.913 80.444 80.444zm-132.526-91.136c12.3 6.267 24.195 19.992 34.029 39.707 3.083 6.181 5.893 12.776 8.419 19.726-13.68-2.225-27.905-3.652-42.448-4.235zm0 85.221c17.996.777 35.364 2.951 51.583 6.414 3.463 16.219 5.637 33.587 6.414 51.583h-57.997zm0 87.997h57.998c-.777 17.996-2.951 35.364-6.414 51.583-16.219 3.463-33.587 5.637-51.583 6.415v-57.998zm0 88.021c14.543-.583 28.768-2.01 42.448-4.235-2.526 6.949-5.336 13.544-8.419 19.725-9.834 19.715-21.729 33.44-34.029 39.707zm52.084 44.503c3.077-4.84 6.012-10.051 8.791-15.622 6.127-12.284 11.301-25.93 15.447-40.579 14.649-4.146 28.295-9.32 40.579-15.447 5.572-2.779 10.783-5.715 15.624-8.792-16.221 35.529-44.91 64.219-80.441 80.44z" fill="#4855b7"/><g><circle cx="182.489" cy="181.403" fill="#fe6a16" r="32.348"/></g><g><circle cx="334.959" cy="181.403" fill="#f24500" r="32.348"/></g><g><circle cx="334.959" cy="330.597" fill="#f24500" r="32.348"/></g></g></svg>