<svg id="Capa_1" enable-background="new 0 0 512 512" height="512" viewBox="0 0 512 512" width="512" xmlns="http://www.w3.org/2000/svg"><g><g><g><g><g><g><g><g><g><g><circle cx="256" cy="256" fill="#a3d4ff" r="256"/></g></g></g></g></g></g></g></g></g><path d="m512 256c0-32.538-6.07-63.657-17.14-92.289l-68.308-68.308-341.104 283.747 129.59 129.59c13.338 2.145 27.02 3.26 40.962 3.26 141.385 0 256-114.615 256-256z" fill="#65b1fc"/><g><path d="m85.448 95.403h341.103v52.235h-341.103z" fill="#7584f2"/></g><g><path d="m255.756 95.403h170.796v52.235h-170.796z" fill="#606aea"/></g><g><path d="m85.448 142.752h341.103v236.398h-341.103z" fill="#fff"/></g><g><path d="m255.756 142.752h170.796v236.398h-170.796z" fill="#e9edf5"/></g><g><path d="m158.37 241.881-34.927-47.777v47.777h-15.596v-73.258h16.036l33.938 46.02v-46.02h15.597v73.258z" fill="#707789"/><path d="m187.909 241.881v-73.258h51.841v13.729h-36.245v15.486h35.476v13.729h-35.476v16.585h36.245v13.729z" fill="#707789"/><g fill="#555a66"><path d="m307.952 241.881-12.851-50.303-12.74 50.303h-16.585l-20.979-73.258h17.464l12.851 52.939 13.948-52.939h12.191l13.839 52.939 12.741-52.939h17.573l-20.868 73.258z"/><path d="m347.815 231.557 8.457-11.862c5.162 5.382 13.18 9.885 23.284 9.885 8.567 0 12.741-3.954 12.741-8.128 0-12.96-42.176-4.064-42.176-31.632 0-12.191 10.544-22.296 27.787-22.296 11.643 0 21.308 3.515 28.557 10.214l-8.677 11.423c-5.931-5.492-13.839-8.018-21.308-8.018-6.699 0-10.434 2.966-10.434 7.359 0 11.642 42.065 3.844 42.065 31.192 0 13.4-9.556 23.504-29.325 23.504-14.057.001-24.161-4.722-30.971-11.641z"/></g></g><g><path d="m106.83 270.448h302.985v30h-302.985z" fill="#cdd2e1"/></g><g><path d="m255.756 270.448h154.059v30h-154.059z" fill="#afb4c8"/></g><g><path d="m280.803 319.706h129.013v30h-129.013z" fill="#afb4c8"/></g><g><path d="m106.83 319.706h129.013v30h-129.013z" fill="#cdd2e1"/></g><g><circle cx="107.699" cy="118.426" fill="#4855b7" r="11.728"/></g><g><circle cx="171.554" cy="118.426" fill="#4855b7" r="11.728"/></g><g><circle cx="139.626" cy="118.426" fill="#4855b7" r="11.728"/></g></g></svg>