<svg id="Capa_1" enable-background="new 0 0 512 512" height="512" viewBox="0 0 512 512" width="512" xmlns="http://www.w3.org/2000/svg"><g><g><g><g><g><g><g><g><g><circle cx="256" cy="256" fill="#7584f2" r="256"/></g></g></g></g></g></g></g></g><path d="m507.13 206.055-153.662-153.663 26.656 92.324-59.49-59.49 8.526 85.708-45.691-45.692-25.127 26.96-78.597-78.597-53.745 48.31 32.532 125.412 62.79 62.79-37.033 141.468 62.171 60.241c3.166.116 6.346.175 9.54.175 141.385 0 256-114.615 256-256 0-17.092-1.675-33.793-4.87-49.946z" fill="#4855b7"/><g><path d="m191.366 214.493c-35.639-35.639-35.639-93.627 0-129.267l21.213 21.213c-23.941 23.942-23.941 62.899 0 86.841z" fill="#ffce00"/></g><g><path d="m320.634 214.493-21.213-21.213c23.941-23.942 23.941-62.898 0-86.841l21.213-21.213c35.638 35.639 35.638 93.628 0 129.267z" fill="#fdba12"/></g><g><path d="m158.532 247.327c-53.744-53.743-53.744-141.191 0-194.935l21.213 21.213c-42.047 42.047-42.047 110.463 0 152.509z" fill="#ffce00"/></g><g><path d="m353.468 247.328-21.213-21.213c20.368-20.369 31.586-47.45 31.586-76.255s-11.218-55.886-31.586-76.255l21.213-21.213c26.035 26.034 40.373 60.649 40.373 97.468s-14.338 71.433-40.373 97.468z" fill="#fdba12"/></g><path d="m298.051 451.584h29.66l-45.326-300.443h-52.77l-45.326 300.443h29.66l8.507-53.451h67.088zm-41.455-270.442 11.327 74.601h-23.846l11.327-74.601zm5.067 104.6-30.406 54.427 8.264-54.427zm-11.665 82.392 27.513-49.249 7.478 49.249z" fill="#fff"/><path d="m327.711 451.584-45.326-300.442h-26.264v30h.475l11.327 74.6h-11.802v30h5.543l-5.543 9.922v61.51l21.39-38.289 7.478 49.249h-28.868v30h33.423l8.507 53.45z" fill="#e9edf5"/><g><circle cx="256" cy="149.859" fill="#fe6a16" r="36.89"/></g><g><path d="m292.89 149.859c0-20.333-16.452-36.822-36.77-36.887v73.774c20.319-.065 36.77-16.553 36.77-36.887z" fill="#f24500"/></g></g></svg>