<svg id="Capa_1" enable-background="new 0 0 512 512" height="512" viewBox="0 0 512 512" width="512" xmlns="http://www.w3.org/2000/svg"><g><g><g><g><g><g><g><g><g><g><circle cx="256" cy="256" fill="#fe6a16" r="256"/></g></g></g></g></g></g></g></g></g><path d="m512 256c0-13.354-1.023-26.47-2.994-39.273l-88.126-88.127-297.913 102.381 74.978 74.978-67.999 72.826 40.943 40.943-16.512 20.161 70.201 70.202c10.298 1.26 20.784 1.909 31.422 1.909 141.385 0 256-114.615 256-256z" fill="#ea4006"/><g><circle cx="169.914" cy="419.903" fill="#bec3d2" r="25.32"/></g><g><path d="m169.914 394.583c-.181 0-.36.01-.541.014v50.613c.18.004.359.014.541.014 13.984 0 25.32-11.336 25.32-25.32s-11.336-25.321-25.32-25.321z" fill="#afb4c8"/></g><g><path d="m207.751 313.641c-11.881-.542-22.56 4.705-29.458 13.158-6.898-8.453-17.577-13.7-29.458-13.158-18.02.822-32.83 15.262-34.071 33.258-1.444 20.941 15.117 38.378 35.749 38.378 5.822 0 11.32-1.389 16.181-3.853 7.302-3.702 15.896-3.702 23.198 0 4.861 2.464 10.358 3.853 16.181 3.853 20.633 0 37.193-17.436 35.749-38.377-1.241-17.996-16.051-32.436-34.071-33.259z" fill="#cdd2e1"/></g><g><path d="m241.822 346.9c-1.24-17.996-16.051-32.436-34.071-33.258-11.881-.542-22.56 4.705-29.458 13.158-.157-.192-.325-.374-.486-.562v52.425c4.135-.078 8.285.836 12.085 2.762 4.861 2.464 10.358 3.853 16.181 3.853 20.632-.001 37.192-17.437 35.749-38.378z" fill="#bec3d2"/></g><g><path d="m292.347 232.329c-3.686 0-7.273.419-10.718 1.214-12.746-14.291-31.299-23.29-51.955-23.29s-39.209 8.999-51.955 23.29c-3.444-.794-7.032-1.214-10.718-1.214-26.243 0-47.517 21.274-47.517 47.517s21.274 47.517 47.517 47.517c3.686 0 7.273-.42 10.718-1.214 12.746 14.291 31.299 23.29 51.955 23.29s39.209-8.999 51.955-23.29c3.444.794 7.032 1.214 10.718 1.214 26.243 0 47.517-21.274 47.517-47.517.001-26.242-21.274-47.517-47.517-47.517z" fill="#e9edf5"/></g><g><path d="m292.347 232.329c-3.686 0-7.273.419-10.718 1.213-12.633-14.165-30.976-23.119-51.413-23.275v139.158c20.437-.157 38.78-9.11 51.413-23.275 3.444.794 7.032 1.214 10.718 1.214 26.243 0 47.517-21.274 47.517-47.518.001-26.243-21.274-47.517-47.517-47.517z" fill="#dce1eb"/></g><g><path d="m361.345 98.317c-5.713 0-11.274.65-16.613 1.881-19.757-22.152-48.516-36.102-80.534-36.102s-60.777 13.949-80.534 36.102c-5.339-1.231-10.9-1.881-16.613-1.881-40.678 0-73.655 32.977-73.655 73.655 0 40.679 32.976 73.655 73.655 73.655 5.713 0 11.274-.651 16.613-1.881 19.757 22.152 48.516 36.102 80.534 36.102s60.777-13.949 80.534-36.102c5.339 1.231 10.9 1.881 16.613 1.881 40.678 0 73.655-32.977 73.655-73.655 0-40.679-32.976-73.655-73.655-73.655z" fill="#fff"/></g><g><path d="m361.345 98.317c-5.713 0-11.274.65-16.613 1.881-19.757-22.152-48.516-36.102-80.534-36.102-2.718 0-5.41.108-8.078.306v215.138c2.667.198 5.36.306 8.078.306 32.018 0 60.777-13.949 80.534-36.102 5.339 1.23 10.9 1.881 16.613 1.881 40.678 0 73.655-32.977 73.655-73.655 0-40.677-32.976-73.653-73.655-73.653z" fill="#e9edf5"/></g></g></svg>