<svg id="Capa_1" enable-background="new 0 0 512 512" height="512" viewBox="0 0 512 512" width="512" xmlns="http://www.w3.org/2000/svg"><g><g><g><g><g><g><g><g><g><circle cx="256" cy="256" fill="#ffce00" r="256"/></g></g></g></g></g></g></g></g><path d="m512 256c0-7.377-.312-14.681-.924-21.899l-85.857-85.6-32.792-24.661-93.849 98.292-79.938-79.938-76.447 76.447 80.607 80.607-103.769 96.503 115.35 115.349c7.128.596 14.338.9 21.619.9 141.385 0 256-114.615 256-256z" fill="#ffa300"/><g><g><path d="m163.179 149.796h20.798v47.566h-20.798z" fill="#707789" transform="matrix(.707 -.707 .707 .707 -71.899 173.578)"/></g><g><path d="m173.066 145.7h9.215v47.566h-9.215z" fill="#555a66" transform="matrix(.707 -.707 .707 .707 -67.803 175.275)"/></g><g><path d="m218.641 142.193c21.11 21.11 21.11 55.337 0 76.447s-55.337 21.11-76.447 0z" fill="#555a66"/></g><g><path d="m218.641 142.193-37.386 37.386 38.202 38.203c20.275-21.169 20.013-54.759-.816-75.589z" fill="#333940"/></g><g><path d="m155.822 245.089h190.588v32.253h-190.588z" fill="#555a66" transform="matrix(.707 -.707 .707 .707 -111.157 254.074)"/></g><g><path d="m244.267 208.454h86.968v32.253h-86.968z" fill="#333940" transform="matrix(.707 -.707 .707 .707 -74.522 269.252)"/></g><g><path d="m223.575 188.385h99.468v169.848h-99.468z" fill="#707789" transform="matrix(.707 -.707 .707 .707 -113.208 273.309)"/></g><g><path d="m267.036 170.382h48.55v169.849h-48.55z" fill="#555a66" transform="matrix(.707 -.707 .707 .707 -95.206 280.766)"/></g><g><g><path d="m98.643 304.853h129.725v87.285h-129.725z" fill="#707789" transform="matrix(.707 -.707 .707 .707 -198.534 217.687)"/></g><g><path d="m283.633 119.863h129.725v87.285h-129.725z" fill="#555a66" transform="matrix(.707 -.707 .707 .707 -13.544 294.313)"/></g></g><g><path d="m114.587 322.265h96.112v51.122h-96.112z" fill="#a3d4ff" transform="matrix(.707 -.707 .707 .707 -198.313 216.882)"/></g><g><path d="m299.674 137.179h96.112v51.122h-96.112z" fill="#65b1fc" transform="matrix(.707 -.707 .707 .707 -13.227 293.547)"/></g></g></g></svg>