<svg id="Capa_1" enable-background="new 0 0 512 512" height="512" viewBox="0 0 512 512" width="512" xmlns="http://www.w3.org/2000/svg"><g><g><g><g><g><g><g><g><g><circle cx="256" cy="256" fill="#ffce00" r="256"/></g></g></g></g></g></g></g></g><path d="m512 256c0-7.655-.336-15.231-.994-22.715l-108.398-108.398-101.639 99.916-94.886-94.886-89.975 86.772 41.795 41.795-108.624 54.762 198.628 198.628c2.688.083 5.385.125 8.093.125 141.385.001 256-114.614 256-255.999z" fill="#ffa300"/><g><g><path d="m382.167 225.132c21.922-9.857 37.186-31.886 37.186-57.48 0-34.79-28.202-62.993-62.992-62.993s-62.993 28.203-62.993 62.993c0 25.594 15.265 47.623 37.186 57.48-41.789 10.287-73.972 44.99-80.554 88.114h212.721c-6.582-43.124-38.765-77.827-80.554-88.114z" fill="#606aea"/></g><g><path d="m181.445 225.132c21.922-9.857 37.186-31.886 37.186-57.48 0-34.79-28.202-62.993-62.992-62.993s-62.993 28.203-62.993 62.993c0 25.594 15.265 47.623 37.186 57.48-41.789 10.287-73.972 44.99-80.554 88.114h212.722c-6.583-43.124-38.766-77.827-80.555-88.114z" fill="#7584f2"/></g></g><g><path d="m286.617 281.195c26.008-11.695 44.118-37.83 44.118-68.195 0-41.275-33.46-74.735-74.735-74.735s-74.735 33.46-74.735 74.735c0 30.365 18.11 56.5 44.118 68.195-49.579 12.204-87.761 53.376-95.57 104.539h252.375c-7.81-51.163-45.993-92.334-95.571-104.539z" fill="#fe6a16"/></g><g><path d="m286.617 281.195c26.008-11.695 44.118-37.83 44.118-68.195 0-41.234-33.395-74.667-74.614-74.732v247.467h126.067c-7.81-51.164-45.992-92.336-95.571-104.54z" fill="#f24500"/></g></g></svg>