<svg id="Capa_1" enable-background="new 0 0 512 512" height="512" viewBox="0 0 512 512" width="512" xmlns="http://www.w3.org/2000/svg"><g><g><g><g><g><g><g><g><g><circle cx="256" cy="256" fill="#a3d4ff" r="256"/></g></g></g></g></g></g></g></g><path d="m511.448 272.95-178.775-178.775-161.856 107.598 59.906 59.906-163.707 83.132 166.188 166.188c7.51.663 15.114 1.001 22.796 1.001 135.689 0 246.722-105.567 255.448-239.05z" fill="#65b1fc"/><path d="m271 260.736v-71.68h-30v71.68h-58.687v30h147.374v-30z" fill="#fe6a16"/><path d="m271 260.736v-71.68h-14.879v101.68h73.566v-30z" fill="#f24500"/><g><g><path d="m334.974 192.133h-157.948v-90.051c0-8.147 6.604-14.751 14.751-14.751h128.446c8.147 0 14.751 6.604 14.751 14.751z" fill="#707789"/></g><g><path d="m334.974 102.083c0-8.147-6.604-14.751-14.751-14.751h-64.102v104.801h78.853z" fill="#555a66"/></g><g><path d="m319.54 189.86h-127.08v-81.319c0-4.078 3.306-7.384 7.384-7.384h112.313c4.078 0 7.384 3.306 7.384 7.384v81.319z" fill="#fff"/></g><g><path d="m319.54 108.542c0-4.078-3.306-7.384-7.384-7.384h-56.036v88.702h63.419v-81.318z" fill="#e9edf5"/></g><g><path d="m335.095 204.051h-158.19c-5.139 0-9.306-4.166-9.306-9.306v-20.684h176.801v20.684c.001 5.14-4.166 9.306-9.305 9.306z" fill="#555a66"/></g><g><path d="m256.121 174.062v29.99h78.974c5.14 0 9.306-4.167 9.306-9.306v-20.684z" fill="#333940"/></g></g><g><g><g><path d="m438.441 335.475h-157.948v-90.051c0-8.147 6.604-14.751 14.751-14.751h128.446c8.147 0 14.751 6.604 14.751 14.751z" fill="#707789"/></g><g><path d="m438.44 245.424c0-8.146-6.604-14.751-14.751-14.751h-63.758v104.802h78.508v-90.051z" fill="#555a66"/></g><g><path d="m423.007 333.202h-127.08v-81.319c0-4.078 3.306-7.384 7.384-7.384h112.313c4.078 0 7.384 3.306 7.384 7.384v81.319z" fill="#fff"/></g><g><path d="m423.007 251.883c0-4.078-3.306-7.384-7.384-7.384h-55.691v88.703h63.075z" fill="#e9edf5"/></g><g><path d="m438.562 347.393h-158.19c-5.139 0-9.306-4.166-9.306-9.306v-20.684h176.801v20.684c0 5.139-4.166 9.306-9.305 9.306z" fill="#555a66"/></g><g><path d="m359.932 317.403v29.99h78.629c5.139 0 9.306-4.166 9.306-9.306v-20.684z" fill="#333940"/></g></g><g><g><path d="m231.507 335.475h-157.948v-90.051c0-8.147 6.604-14.751 14.751-14.751h128.446c8.147 0 14.751 6.604 14.751 14.751z" fill="#707789"/></g><g><path d="m231.507 245.424c0-8.146-6.604-14.751-14.751-14.751h-63.593v104.802h78.344z" fill="#555a66"/></g><g><path d="m216.073 333.202h-127.08v-81.319c0-4.078 3.306-7.384 7.384-7.384h112.313c4.078 0 7.384 3.306 7.384 7.384v81.319z" fill="#fff"/></g><g><path d="m216.073 251.883c0-4.078-3.306-7.384-7.384-7.384h-55.526v88.703h62.91z" fill="#e9edf5"/></g><g><path d="m231.628 347.393h-158.19c-5.139 0-9.306-4.166-9.306-9.306v-20.684h176.801v20.684c.001 5.139-4.165 9.306-9.305 9.306z" fill="#555a66"/></g><g><path d="m153.163 317.403v29.99h78.465c5.14 0 9.306-4.166 9.306-9.306v-20.684z" fill="#333940"/></g></g></g></g></svg>