<svg id="Capa_1" enable-background="new 0 0 512 512" height="512" viewBox="0 0 512 512" width="512" xmlns="http://www.w3.org/2000/svg"><g><g><g><g><g><g><g><g><g><path d="m188.9 8.884c21.386-5.793 43.882-8.884 67.1-8.884 141.385 0 256 114.615 256 256s-114.615 256-256 256-256-114.615-256-256c0-107.016 65.665-198.695 158.9-236.943z" fill="#a3d4ff"/></g></g></g></g></g></g></g></g><path d="m512 256c0-15.495-1.377-30.667-4.014-45.403l-133.283-133.283h-117.373l-68.43-68.43-11.154 68.43 91.813 91.813-192.559 206.089 132.587 132.587c15.052 2.756 30.564 4.197 46.413 4.197 141.385 0 256-114.615 256-256z" fill="#65b1fc"/><g><path d="m336.221 55.874h-132.022c-8.436 0-15.299-6.863-15.299-15.299v-31.691c-10.271 2.782-20.285 6.188-30 10.173v21.519c0 24.978 20.321 45.299 45.299 45.299h132.021c8.436 0 15.299 6.863 15.299 15.298 0 8.436-6.863 15.299-15.299 15.299h-49.922c-24.978 0-45.299 20.321-45.299 45.298v42.595h30v-42.595c0-8.436 6.863-15.298 15.299-15.298h49.922c24.978 0 45.299-20.321 45.299-45.299.001-24.978-20.321-45.299-45.298-45.299z" fill="#707789"/></g><g><path d="m336.221 55.874h-80.1v30h80.1c8.436 0 15.299 6.863 15.299 15.298 0 8.436-6.863 15.299-15.299 15.299h-49.922c-11.583 0-22.16 4.375-30.178 11.553v76.34h14.879v-42.594c0-8.436 6.863-15.298 15.299-15.298h49.922c24.978 0 45.299-20.321 45.299-45.299s-20.322-45.299-45.299-45.299z" fill="#555a66"/></g><g><path d="m77 191.56h358v183.656h-358z" fill="#555a66"/></g><g><path d="m256.121 191.56h178.879v183.656h-178.879z" fill="#333940"/></g><g><g><path d="m102.552 212.627h33.231v33.231h-33.231z" fill="#707789"/></g><g><path d="m157.285 212.627h33.231v33.231h-33.231z" fill="#707789"/></g><g><path d="m212.018 212.627h33.231v33.231h-33.231z" fill="#707789"/></g><g><path d="m266.751 212.627h33.231v33.231h-33.231z" fill="#555a66"/></g><g><path d="m321.484 212.627h33.231v33.231h-33.231z" fill="#555a66"/></g><g><path d="m376.217 212.627h33.231v33.231h-33.231z" fill="#555a66"/></g></g><g><g><path d="m102.552 266.772h33.231v33.231h-33.231z" fill="#707789"/></g><g><path d="m157.285 266.772h33.231v33.231h-33.231z" fill="#707789"/></g><g><path d="m212.018 266.772h33.231v33.231h-33.231z" fill="#707789"/></g><g><path d="m266.751 266.772h33.231v33.231h-33.231z" fill="#555a66"/></g><g><path d="m321.484 266.772h33.231v33.231h-33.231z" fill="#555a66"/></g><g><path d="m376.217 266.772h33.231v33.231h-33.231z" fill="#555a66"/></g></g><g><g><path d="m102.552 320.918h33.231v33.231h-33.231z" fill="#707789"/></g><g><path d="m157.285 320.918h197.429v33.231h-197.429z" fill="#707789"/></g><g><path d="m256.121 320.918h98.594v33.231h-98.594z" fill="#555a66"/></g><g><path d="m376.217 320.918h33.231v33.231h-33.231z" fill="#555a66"/></g></g></g></svg>