<svg id="Capa_1" enable-background="new 0 0 512 512" height="512" viewBox="0 0 512 512" width="512" xmlns="http://www.w3.org/2000/svg"><g><g><g><g><g><g><g><g><g><path d="m225.134 511.077c-126.831-15.241-225.134-123.22-225.134-254.158 0-141.385 114.615-256 256-256s256 114.615 256 256c0 130.948-98.318 238.932-225.162 254.162z" fill="#ffce00"/></g></g></g></g></g></g></g></g><path d="m512 256.919c0-7.199-.297-14.328-.88-21.376l-116.987-116.987-295.894 296.124 88.859 88.859c12.328 3.437 25.032 5.975 38.035 7.538l61.704.003c126.845-15.228 225.163-123.213 225.163-254.161z" fill="#ffa300"/><g><g><path d="m98.239 241.281c0-95.766 77.633-173.399 173.399-173.399s173.399 77.633 173.399 173.399-77.633 173.399-173.399 173.399h-173.399z" fill="#7584f2"/></g><path d="m394.133 118.556-295.894 296.124h173.399c95.766 0 173.399-77.634 173.399-173.399 0-47.911-19.483-91.261-50.904-122.725z" fill="#606aea"/><g><path d="m242.007 270.699-108.205-22.381 241.113-110.528-110.314 241.327z" fill="#fff"/></g><g><path d="m242.007 270.699 22.594 108.418 110.314-241.327z" fill="#e9edf5"/></g></g></g></svg>