<svg id="Capa_1" enable-background="new 0 0 512 512" height="512" viewBox="0 0 512 512" width="512" xmlns="http://www.w3.org/2000/svg"><g><g><g><g><g><g><g><g><g><g><circle cx="256" cy="256" fill="#a3d4ff" r="256"/></g></g></g></g></g></g></g></g></g><path d="m291.399 509.572c115.256-15.942 205.999-108.612 219-224.782l-132.281-132.452-1.73-1.559-121.893-61.143-4.495 145.629-126.509-58.603 112.86 112.859-80.877 84.126z" fill="#65b1fc"/><path d="m376.509 321.802-79.586-66.097 79.624-66.392c5.724-4.773 9.02-11.851 8.99-19.304-.031-7.453-3.385-14.504-9.149-19.229l-110.63-90.708c-7.473-6.127-17.81-7.398-26.545-3.265-8.736 4.134-14.306 12.933-14.306 22.597v116.49l-69.471-57.696-31.945 38.464 95.265 79.119-95.302 79.464 32.021 38.402 69.433-57.895v116.844c0 9.685 5.594 18.499 14.358 22.622 3.395 1.597 7.026 2.379 10.638 2.379 5.713 0 11.373-1.958 15.944-5.741l110.63-91.562c5.732-4.745 9.054-11.796 9.06-19.238.005-7.442-3.304-14.5-9.029-19.254zm-101.602-189.572 46.398 38.043-46.398 38.688zm0 247.223v-77.039l46.46 38.586z" fill="#606aea"/><path d="m218.755 255.78-95.302 79.464 32.021 38.402 69.433-57.895v116.844c0 9.685 5.594 18.499 14.358 22.622 3.395 1.597 7.026 2.379 10.638 2.379 5.713 0 11.373-1.958 15.944-5.741l110.63-91.562c5.732-4.745 9.054-11.796 9.06-19.238s-3.303-14.5-9.027-19.254l-79.586-66.097zm56.152 123.673v-77.039l46.46 38.586z" fill="#354cbc"/></g></svg>