<svg id="Capa_1" enable-background="new 0 0 512 512" height="512" viewBox="0 0 512 512" width="512" xmlns="http://www.w3.org/2000/svg"><g><g><g><g><g><g><g><g><g><circle cx="256" cy="256" fill="#a3d4ff" r="256"/></g></g></g></g></g></g></g></g><path d="m512 256c0-.898-.005-1.796-.014-2.692l-59.86-59.859-20.426 13.653-24.982-24.981-346.844 136.431 24.049 24.049-2.64 1.478 167.83 167.83c2.288.061 4.584.091 6.887.091 141.385 0 256-114.615 256-256z" fill="#65b1fc"/><g><g><path d="m81.283 309.545h69.481v34.534h-69.481z" fill="#707789"/></g><g><path d="m361.236 309.545h69.481v34.534h-69.481z" fill="#555a66"/></g></g><g><path d="m59.874 193.448h392.253v125.104h-392.253z" fill="#555a66"/></g><g><path d="m256.12 193.448h196.006v125.104h-196.006z" fill="#333940"/></g><g><circle cx="355.409" cy="232.333" fill="#555a66" r="71.796"/></g><g><path d="m355.409 160.537c39.652 0 71.796 32.144 71.796 71.796s-32.144 71.796-71.796 71.796z" fill="#414952"/></g><g><circle cx="355.409" cy="232.333" fill="#7584f2" r="47.831"/></g><g><path d="m355.409 184.501c26.417 0 47.832 21.415 47.832 47.831s-21.415 47.832-47.832 47.832z" fill="#4855b7"/></g><g><circle cx="333.906" cy="212.996" fill="#fff" r="14.986"/></g><g><path d="m85.566 212.996h30.064v86.009h-30.064z" fill="#707789"/></g><g><path d="m136.715 212.996h30.064v86.009h-30.064z" fill="#707789"/></g><g><path d="m187.865 212.996h30.064v86.009h-30.064z" fill="#707789"/></g></g></svg>