<svg id="Capa_1" enable-background="new 0 0 512 512" height="512" viewBox="0 0 512 512" width="512" xmlns="http://www.w3.org/2000/svg"><g><g><g><g><g><g><g><g><g><circle cx="256" cy="256" fill="#fe6a16" r="256"/></g></g></g></g></g></g></g></g><path d="m512 256c0-2.105-.026-4.206-.076-6.299l-124.554-124.554-2.556 2.819-21.791-21.792-47.015 59.042-105.217-105.216-76.887 137.473 63.815 63.815-63.815 22.594 25.077 25.077-10.004 7.753 74.479 74.479-57.374 60.809 58.034 58.034c10.445 1.298 21.087 1.966 31.884 1.966 141.385 0 256-114.615 256-256z" fill="#ea4006"/><g><path d="m354.791 125.147h32.579v67.113h-32.579z" fill="#23272b"/></g><g><path d="m133.904 129.708h28.67v67.765h-28.67z" fill="#414952"/></g><g><path d="m133.904 216.118h28.67v67.765h-28.67z" fill="#414952"/></g><g><path d="m175.855 60h34.936v69.708h-34.936z" fill="#555a66"/></g><g><path d="m166.082 162.697h179.837v289.303h-179.837z" fill="#555a66"/></g><g><path d="m256.121 162.697h89.798v289.303h-89.798z" fill="#333940"/></g><g><path d="m148.978 106.175h214.045v210.537h-214.045z" fill="#636978"/></g><g><path d="m256.121 106.175h106.902v210.538h-106.902z" fill="#414952"/></g><g><path d="m175.855 134.418h160.289v83.542h-160.289z" fill="#a3d4ff"/></g><g><path d="m256.121 134.418h80.024v83.542h-80.024z" fill="#65b1fc"/></g><g><path d="m185.303 346.034h141.393v31.118h-141.393z" fill="#707789"/></g><g><path d="m256.121 346.034h70.576v31.118h-70.576z" fill="#555a66"/></g><g><path d="m185.303 393.599h141.393v31.118h-141.393z" fill="#707789"/></g><g><path d="m256.121 393.599h70.576v31.118h-70.576z" fill="#555a66"/></g><g><circle cx="255.424" cy="265.238" fill="#414952" r="36.163"/></g><g><path d="m291.587 265.237c0-19.738-15.817-35.772-35.467-36.145v72.291c19.65-.373 35.467-16.407 35.467-36.146z" fill="#23272b"/></g></g></svg>