<svg id="Capa_1" enable-background="new 0 0 512 512" height="512" viewBox="0 0 512 512" width="512" xmlns="http://www.w3.org/2000/svg"><g><g><g><g><g><g><g><g><g><g><circle cx="256" cy="256" fill="#ffce00" r="256"/></g></g></g></g></g></g></g></g></g><path d="m512 256c0-5.924-.202-11.8-.597-17.624l-129.263-129.263-126.14-32.113-110.121 44.916-44.939 140.084-25.763 104.668 142.48 142.48c12.508 1.878 25.312 2.852 38.343 2.852 141.385 0 256-114.615 256-256z" fill="#ffa300"/><g><path d="m426.886 329.265h-38v-104.988c0-73.273-59.612-132.886-132.886-132.886s-132.886 59.612-132.886 132.886v104.988h-38v-104.988c0-94.227 76.659-170.886 170.886-170.886s170.886 76.659 170.886 170.886z" fill="#555a66"/></g><g><path d="m113.068 373.435h-24.257c-9.457 0-17.123-7.666-17.123-17.123v-68.077c0-9.457 7.666-17.123 17.123-17.123h24.257c9.457 0 17.123 7.666 17.123 17.123v68.077c.001 9.457-7.666 17.123-17.123 17.123z" fill="#fe6a16"/></g><g><path d="m398.932 373.435h24.257c9.457 0 17.123-7.666 17.123-17.123v-68.077c0-9.457-7.666-17.123-17.123-17.123h-24.257c-9.457 0-17.123 7.666-17.123 17.123v68.077c-.001 9.457 7.666 17.123 17.123 17.123z" fill="#fe6a16"/></g><g><path d="m71.688 323.892v32.42c0 9.457 7.667 17.123 17.123 17.123h24.257c9.457 0 17.123-7.666 17.123-17.123v-32.42z" fill="#f24500"/></g><g><path d="m381.808 323.892v32.42c0 9.457 7.666 17.123 17.123 17.123h24.257c9.457 0 17.123-7.666 17.123-17.123v-32.42z" fill="#f24500"/></g><g><path d="m146.654 401.756c-24.135 0-43.701-19.565-43.701-43.701v-71.563c0-24.135 19.565-43.701 43.701-43.701 24.135 0 43.701 19.565 43.701 43.701v71.563c-.001 24.135-19.566 43.701-43.701 43.701z" fill="#707789"/></g><g><path d="m365.346 401.756c24.135 0 43.701-19.565 43.701-43.701v-71.563c0-24.135-19.565-43.701-43.701-43.701-24.135 0-43.701 19.565-43.701 43.701v71.563c.001 24.135 19.566 43.701 43.701 43.701z" fill="#707789"/></g><g><path d="m102.953 323.892v34.164c0 24.135 19.565 43.701 43.7 43.701 24.135 0 43.7-19.565 43.7-43.701v-34.164z" fill="#555a66"/></g><g><path d="m321.646 323.892v34.164c0 24.135 19.565 43.701 43.7 43.701 24.135 0 43.7-19.565 43.7-43.701v-34.164z" fill="#555a66"/></g></g></svg>