<svg id="Capa_1" enable-background="new 0 0 512 512" height="512" viewBox="0 0 512 512" width="512" xmlns="http://www.w3.org/2000/svg"><g><g><g><g><g><g><g><g><g><circle cx="256" cy="256" fill="#ffce00" r="256"/></g></g></g></g></g></g></g></g><path d="m512 256c0-21.847-2.737-43.054-7.886-63.298l-78.68-78.68-77.609 121.966-106.13-104.815-171.584 254.805 116.509 116.509c22.064 6.198 45.335 9.513 69.38 9.513 141.385 0 256-114.615 256-256z" fill="#ffa300"/><g><path d="m441.889 385.978h-371.778v-254.9h150.695l36.64 60.646 36.64-60.646h147.803z" fill="#7584f2"/></g><g><path d="m441.889 131.078h-147.803l-36.64 60.646-1.446-2.695v196.949h185.889z" fill="#606aea"/></g><g><path d="m242.917 363.236h182.518v-249.214h-115.827c-29.607 0-53.608 24.001-53.608 53.608z" fill="#e9edf5"/></g><g><path d="m256 363.236h-169.435v-249.214h115.826c29.607 0 53.608 24.001 53.608 53.608v195.606z" fill="#fff"/></g><g><path d="m100.786 181.095h135.855v30.299h-135.855z" fill="#e9edf5"/></g><g><path d="m100.786 288.606h135.855v30.299h-135.855z" fill="#e9edf5"/></g><g><path d="m100.786 234.851h135.855v30.299h-135.855z" fill="#e9edf5"/></g><g><path d="m273.781 181.095h135.855v30.299h-135.855z" fill="#cdd2e1"/></g><g><path d="m273.781 288.606h135.855v30.299h-135.855z" fill="#cdd2e1"/></g><g><path d="m273.781 234.851h135.855v30.299h-135.855z" fill="#cdd2e1"/></g></g></svg>