<svg id="Capa_1" enable-background="new 0 0 512 512" height="512" viewBox="0 0 512 512" width="512" xmlns="http://www.w3.org/2000/svg"><g><g><g><g><g><g><g><g><g><circle cx="256" cy="256" fill="#fe6a16" r="256"/></g></g></g></g></g></g></g></g><path d="m512 256c0-2.131-.026-4.255-.078-6.374l-79.872-79.872-15.117 28.349-114.134-114.134-191.853 333.122 88.682 88.682c18.138 4.076 37.004 6.227 56.372 6.227 141.385 0 256-114.615 256-256z" fill="#ea4006"/><g><path d="m285.033 424.372h-157.265c-12.754 0-23.094-10.339-23.094-23.094v-302.556c0-12.754 10.339-23.094 23.094-23.094h157.264c12.754 0 23.094 10.339 23.094 23.094v302.556c.001 12.754-10.339 23.094-23.093 23.094z" fill="#636978"/></g><g><path d="m285.033 75.628h-80.719v348.744h80.719c12.754 0 23.094-10.339 23.094-23.094v-302.556c-.001-12.754-10.34-23.094-23.094-23.094z" fill="#414952"/></g><g><path d="m125.834 99.291h161.133v290.825h-161.133z" fill="#fff"/></g><g><path d="m204.313 99.291h82.654v290.825h-82.654z" fill="#e9edf5"/></g><g><path d="m325.836 124.662c-71.35 0-129.191 46.884-129.191 104.717 0 21.573 8.049 41.623 21.844 58.284v77.082l47.36-42.597c17.926 7.631 38.334 11.949 59.987 11.949 71.35 0 129.191-46.884 129.191-104.717s-57.841-104.718-129.191-104.718z" fill="#ffce00"/></g><g><path d="m455.027 229.379c0-57.626-57.428-104.375-128.424-104.71v209.419c70.996-.334 128.424-47.082 128.424-104.709z" fill="#fdba12"/></g></g></svg>